<svg width="271" height="327" fill="none" xmlns="http://www.w3.org/2000/svg"><g filter="url(#filter0_i_1_29)"><path fill-rule="evenodd" clip-rule="evenodd" d="M692.596 68.335c38.467-101.258-74.539-78.526-91.501-136.394-20.605-70.294 127.907-394.107 36.728-433.398-164.414-36.671-212.3 184.058-287.755 192.474-73.15 8.159-193.398 28.436-256.193 66.832C33.77-205.398-49.09-92.689 39.78.389c68.334 68.007 112.911 47.05 133.61 100.952 21.918 57.075 25.563 123.957 71.896 163.847 50.213 43.229 120.45 71.581 185.192 57.488 63.014-13.717 92.421-83.083 138.703-127.992 43.313-42.027 110.611-67.372 123.416-126.35z" fill="#162C4E"/></g><defs><filter id="filter0_i_1_29" x=".838" y="-505.564" width="699.692" height="835.887" filterUnits="userSpaceOnUse" color-interpolation-filters="sRGB"><feFlood flood-opacity="0" result="BackgroundImageFix"/><feBlend in="SourceGraphic" in2="BackgroundImageFix" result="shape"/><feColorMatrix in="SourceAlpha" values="0 0 0 0 0 0 0 0 0 0 0 0 0 0 0 0 0 0 127 0" result="hardAlpha"/><feOffset dy="4"/><feGaussianBlur stdDeviation="15"/><feComposite in2="hardAlpha" operator="arithmetic" k2="-1" k3="1"/><feColorMatrix values="0 0 0 0 0 0 0 0 0 0 0 0 0 0 0 0 0 0 1 0"/><feBlend in2="shape" result="effect1_innerShadow_1_29"/></filter></defs></svg>