<svg width="191" height="60" fill="none" xmlns="http://www.w3.org/2000/svg"><path d="M25.637 46.416c.885-5.25 4.916-8.581 11.026-8.581H52.54c5.925 0 7.184-3.882 7.184-3.882-.885 5.25-3.295 8.581-9.405 8.581H34.033c-6.74 0-8.396 3.882-8.396 3.882z" fill="#DF2325"/><path d="M52.266 43.536c-1.348 2.021-2.91 2.199-5.872 2.199-2.963 0-6.442.065-11.257 0-5.184-.071-9.186 2.264-9.512 7.343 1.348-2.021 3.1-2.389 6.062-2.389 2.963 0 4.744-.065 9.56 0 5.177.078 9.226-2.204 11.02-7.153z" fill="#EE4523"/><path d="M25.637 57.292c0-2.021 2.772-3.106 6.085-3.106s9.726.439 12.451-1.481C43.431 54.92 36.663 60 29.9 60c-3.064 0-4.263-1.476-4.263-2.708z" fill="#FE5F3E"/><path d="M13.609 25.591c5.26.883 8.597 4.907 8.597 11.006v15.847c0 5.915 3.89 7.171 3.89 7.171-5.261-.883-8.598-3.289-8.598-9.387V33.97c0-6.732-3.89-8.38-3.89-8.38z" fill="#172C4F"/><path d="M16.493 52.165c-2.025-1.345-2.203-2.904-2.203-5.861 0-2.958-.065-6.43 0-11.237.071-5.174-2.268-9.168-7.357-9.494 2.025 1.345 2.393 3.093 2.393 6.05 0 2.958.065 4.736 0 9.543-.071 5.173 2.209 9.21 7.167 11z" fill="#264A74"/><path d="M2.72 25.593c2.024 0 3.11 2.767 3.11 6.074 0 3.301-.439 9.708 1.485 12.428C5.088 43.355 0 36.598 0 29.842c0-3.058 1.484-4.25 2.72-4.25z" fill="#345A87"/><path d="M34.48 13.584c-.885 5.25-4.916 8.581-11.026 8.581H7.571c-5.925 0-7.184 3.882-7.184 3.882.885-5.25 3.295-8.582 9.405-8.582h16.286c6.746 0 8.402-3.881 8.402-3.881z" fill="#DF2325"/><path d="M7.85 16.464c1.348-2.021 2.91-2.199 5.872-2.199 2.963 0 6.443-.065 11.258 0 5.183.071 9.185-2.264 9.512-7.343-1.348 2.021-3.1 2.389-6.063 2.389-2.962 0-4.744.065-9.559 0-5.177-.077-9.227 2.204-11.02 7.153z" fill="#EE4523"/><path d="M34.481 2.708c0 2.021-2.773 3.106-6.086 3.106s-9.725-.439-12.45 1.482C16.685 5.079 23.454 0 30.217 0c3.064 0 4.263 1.476 4.263 2.708z" fill="#FE5F3E"/><path d="M46.508 34.41c-5.26-.884-8.597-4.908-8.597-11.006V7.556c0-5.914-3.89-7.17-3.89-7.17 5.261.882 8.598 3.288 8.598 9.387v16.256c0 6.733 3.89 8.38 3.89 8.38z" fill="#172C4F"/><path d="M43.623 7.835c2.024 1.345 2.202 2.904 2.202 5.861 0 2.958.066 6.43 0 11.237-.07 5.174 2.268 9.168 7.357 9.494-2.025-1.345-2.393-3.093-2.393-6.05 0-2.958-.065-4.736 0-9.542.071-5.174-2.209-9.21-7.166-11z" fill="#264A74"/><path d="M57.397 34.41c-2.025 0-3.111-2.768-3.111-6.075 0-3.301.439-9.708-1.485-12.428 2.22.74 7.31 7.497 7.31 14.247.005 3.064-1.48 4.255-2.714 4.255z" fill="#345A87"/><path d="M84.485 6.442v27.102h10.67v6.276H76.339V6.442h8.146zm35.062 6.513h-12.338v6.75h10.907v6.277h-10.907v7.325h12.338v6.513H99.062V6.442h20.485v6.513zm26.108 20.968h-12.481l-2.001 5.897h-8.526l12.101-33.378h9.434l12.101 33.378h-8.621l-2.007-5.897zm-6.241-18.496l-4.096 12.22h8.241l-4.145-12.22zm50.587 7.704c0 9.892-6.857 16.69-17.527 16.69h-12.528V6.441h12.528c10.67 0 17.527 6.75 17.527 16.69zm-18.056 9.649c6.146 0 9.768-3.52 9.768-9.655 0-6.134-3.622-9.749-9.768-9.749h-3.859v19.398h3.859v.006zm-56.478 19.036h-3.414l-.588 1.665h-1.395l2.921-8.149h1.55l2.921 8.149h-1.407l-.588-1.665zm-1.704-4.872l-1.336 3.781h2.666l-1.33-3.781zm15.172 2.046c0 2.508-1.716 4.043-4.329 4.043h-2.665v-8.138h2.665c2.613-.005 4.329 1.577 4.329 4.096zm-4.329 2.952c1.924 0 2.957-1.102 2.957-2.951 0-1.861-1.033-3.01-2.957-3.01h-1.324v5.961h1.324zm14.149-6.604h1.407l-3.063 8.137h-1.55l-3.076-8.137h1.431l2.417 6.768 2.434-6.768zm5.783 0h1.336v8.137h-1.336v-8.137zm9.149 8.22c-1.633 0-2.886-.889-2.886-2.329h1.431c.06.67.529 1.21 1.455 1.21.938 0 1.466-.505 1.466-1.198 0-1.968-4.328-.693-4.328-3.692 0-1.428 1.14-2.318 2.803-2.318 1.561 0 2.665.818 2.778 2.217h-1.478c-.048-.551-.529-1.055-1.372-1.079-.772-.023-1.371.35-1.371 1.138 0 1.837 4.316.694 4.316 3.669 0 1.215-.997 2.382-2.814 2.382zm11.36 0c-2.298 0-4.168-1.719-4.168-4.172 0-2.436 1.864-4.16 4.168-4.16 2.321 0 4.168 1.718 4.168 4.16 0 2.453-1.841 4.172-4.168 4.172zm0-1.156c1.621 0 2.791-1.173 2.791-3.01 0-1.838-1.176-2.988-2.791-2.988-1.621 0-2.791 1.15-2.791 2.987 0 1.838 1.176 3.011 2.791 3.011zm11.737-7.064c1.936 0 2.886 1.114 2.886 2.436 0 .96-.517 1.991-1.888 2.329l2.018 3.372h-1.597l-1.876-3.254h-1.021v3.254h-1.336v-8.137h2.814zm0 1.09h-1.478v2.727h1.478c1.045 0 1.514-.575 1.514-1.381 0-.818-.469-1.346-1.514-1.346zm10.403 7.13c-1.633 0-2.886-.889-2.886-2.329h1.431c.06.67.529 1.21 1.455 1.21.938 0 1.466-.505 1.466-1.198 0-1.968-4.328-.693-4.328-3.692 0-1.428 1.14-2.318 2.803-2.318 1.561 0 2.665.818 2.778 2.217h-1.478c-.048-.551-.529-1.055-1.372-1.079-.772-.023-1.371.35-1.371 1.138 0 1.837 4.316.694 4.316 3.669 0 1.215-.997 2.382-2.814 2.382z" fill="#172C4F"/></svg>