<svg width="16" height="16" viewBox="0 0 16 16" fill="none" xmlns="http://www.w3.org/2000/svg">
<path d="M1.00916 5.6297V11.3497C1.00916 11.8801 1.21987 12.3888 1.59494 12.7639C1.97001 13.139 2.47872 13.3497 3.00916 13.3497H13.0092C13.5396 13.3497 14.0483 13.139 14.4234 12.7639C14.7984 12.3888 15.0092 11.8801 15.0092 11.3497V5.6297L9.05716 9.2917C8.74198 9.4856 8.3792 9.58826 8.00916 9.58826C7.63911 9.58826 7.27633 9.4856 6.96116 9.2917L1.00916 5.6297Z" fill="#022C53"/>
<path d="M15.0092 4.45503V4.3497C15.0092 3.81927 14.7984 3.31056 14.4234 2.93549C14.0483 2.56041 13.5396 2.3497 13.0092 2.3497H3.00916C2.47872 2.3497 1.97001 2.56041 1.59494 2.93549C1.21987 3.31056 1.00916 3.81927 1.00916 4.3497V4.45503L7.48516 8.44037C7.64274 8.53732 7.82413 8.58865 8.00916 8.58865C8.19418 8.58865 8.37557 8.53732 8.53316 8.44037L15.0092 4.45503Z" fill="#022C53"/>
</svg>
