<svg width="16" height="16" viewBox="0 0 16 16" fill="none" xmlns="http://www.w3.org/2000/svg">
<path fill-rule="evenodd" clip-rule="evenodd" d="M1.00916 2.8497C1.00916 2.31927 1.21987 1.81056 1.59494 1.43549C1.97001 1.06041 2.47872 0.849701 3.00916 0.849701H3.92382C4.49716 0.849701 4.99716 1.24037 5.13649 1.79637L5.87316 4.74503C5.93285 4.9837 5.92079 5.23467 5.83849 5.46652C5.75619 5.69836 5.60731 5.90076 5.41049 6.04837L4.54849 6.69503C4.45849 6.76237 4.43916 6.86103 4.46449 6.9297C4.84074 7.95293 5.43489 8.88217 6.20579 9.65307C6.97669 10.424 7.90592 11.0181 8.92916 11.3944C8.99782 11.4197 9.09582 11.4004 9.16382 11.3104L9.81049 10.4484C9.95809 10.2515 10.1605 10.1027 10.3923 10.0204C10.6242 9.93806 10.8752 9.92601 11.1138 9.9857L14.0625 10.7224C14.6185 10.8617 15.0092 11.3617 15.0092 11.9357V12.8497C15.0092 13.3801 14.7984 13.8888 14.4234 14.2639C14.0483 14.639 13.5396 14.8497 13.0092 14.8497H11.5092C5.71049 14.8497 1.00916 10.1484 1.00916 4.3497V2.8497Z" fill="#022C53"/>
</svg>
