<svg width="24" height="24" viewBox="0 0 24 24" fill="none" xmlns="http://www.w3.org/2000/svg">
<path fill-rule="evenodd" clip-rule="evenodd" d="M12.3142 3.16177C16.1747 3.17857 17.9063 4.43516 18.334 4.82924C19.7557 6.06558 20.5439 8.80098 20.0117 13.1332C19.5456 16.9539 16.8829 17.6317 15.9869 17.8598C15.8986 17.8823 15.8274 17.9004 15.7772 17.9168C15.5347 17.9942 13.409 18.5265 10.6399 18.294C10.3333 18.6478 9.92914 19.1127 9.63603 19.4293C9.54729 19.5247 9.46419 19.6191 9.38475 19.7093C8.98474 20.1634 8.67765 20.512 8.21107 20.3658C7.74622 20.2243 7.77315 19.5202 7.77315 19.5202L7.77649 17.782H7.77315C3.72731 16.6433 3.78457 12.446 3.83175 10.2057C3.87892 7.96555 4.31347 6.15652 5.54644 4.92363C7.76306 2.88892 12.3142 3.16177 12.3142 3.16177ZM15.5313 16.6433C16.2933 16.4655 18.411 15.9712 18.8024 12.8165C19.2504 9.20186 18.6372 6.73593 17.4347 5.7051C17.0708 5.37495 15.5077 4.39132 12.2435 4.37786C12.2435 4.37786 8.37953 4.12518 6.50314 5.82641C5.45884 6.85721 5.10511 8.38998 5.06806 10.2596C5.06678 10.3239 5.06531 10.3902 5.0638 10.4584C5.0214 12.372 4.94685 15.7361 8.25826 16.6534C8.25826 16.6534 8.24479 19.308 8.24479 19.5404C8.24142 19.8941 8.43679 19.911 8.61533 19.7325C9.16107 19.1833 10.9128 17.0712 10.9128 17.0712C13.2608 17.2227 15.1304 16.7578 15.3326 16.6938C15.3795 16.6787 15.4471 16.663 15.5313 16.6433Z" fill="#022C53"/>
<path d="M14.1198 10.0946C14.1332 10.3843 13.6987 10.4045 13.6852 10.1148C13.6481 9.37365 13.3011 9.01323 12.587 8.97281C12.2973 8.95593 12.3242 8.52138 12.6105 8.53826C13.5505 8.58877 14.0726 9.12776 14.1198 10.0946Z" fill="#022C53"/>
<path d="M14.8036 10.4752C14.8373 9.04687 13.9446 7.92847 12.2501 7.80386C11.9638 7.78365 11.9941 7.34906 12.2805 7.36927C14.2344 7.5108 15.2752 8.85491 15.2382 10.4853C15.2348 10.775 14.7969 10.7616 14.8036 10.4752Z" fill="#022C53"/>
<path d="M16.387 10.9266C16.3903 11.2163 15.9524 11.2197 15.9524 10.93C15.9322 8.18451 14.103 6.68878 11.883 6.67195C11.5966 6.66857 11.5966 6.2374 11.883 6.2374C14.3657 6.25423 16.3634 7.96888 16.387 10.9266Z" fill="#022C53"/>
<path d="M16.0062 14.2313V14.2381C15.6424 14.8781 14.9619 15.5856 14.2612 15.3599L14.2545 15.3497C13.5437 15.151 11.8695 14.2886 10.8117 13.4464C10.2659 13.0152 9.76734 12.5066 9.38331 12.0181C9.03636 11.5835 8.68603 11.0681 8.34579 10.4483C7.62827 9.1513 7.46994 8.57188 7.46994 8.57188C7.24423 7.8712 7.94829 7.19069 8.59168 6.8269H8.59847C8.90837 6.66516 9.20481 6.71909 9.40356 6.95822C9.40356 6.95822 9.82131 7.45675 9.99981 7.70275C10.1683 7.9318 10.394 8.29896 10.5119 8.50446C10.7174 8.87162 10.5893 9.24557 10.3872 9.40048L9.98297 9.72392C9.77751 9.88896 9.80443 10.1955 9.80443 10.1955C9.80443 10.1955 10.4041 12.4627 12.6443 13.0354C12.6443 13.0354 12.9509 13.0624 13.1159 12.8569L13.4393 12.4526C13.5942 12.2505 13.9682 12.1225 14.3354 12.328C14.8306 12.6076 15.4605 13.0421 15.8783 13.4363C16.114 13.6283 16.1679 13.9214 16.0062 14.2313Z" fill="#022C53"/>
</svg>
