<svg width="24" height="24" viewBox="0 0 24 24" fill="none" xmlns="http://www.w3.org/2000/svg">
<path fill-rule="evenodd" clip-rule="evenodd" d="M18.0937 6.02843C16.5185 4.45143 14.4238 3.58258 12.1919 3.58167C7.59334 3.58167 3.85057 7.32413 3.84878 11.9241C3.84813 13.3946 4.23232 14.8299 4.96245 16.0951L3.77881 20.4184L8.20162 19.2582C9.42021 19.9229 10.7922 20.2733 12.1886 20.2737H12.192C12.1923 20.2737 12.1918 20.2737 12.1921 20.2737C16.7902 20.2737 20.5332 16.5309 20.5351 11.9308C20.5359 9.7015 19.6689 7.60536 18.0937 6.02843ZM12.192 18.8647H12.1891C10.9449 18.8642 9.72443 18.5299 8.65973 17.8981L8.40655 17.7479L5.78198 18.4363L6.48255 15.8774L6.31765 15.615C5.62352 14.511 5.25692 13.2349 5.25746 11.9246C5.25895 8.10127 8.3698 4.99075 12.1948 4.99075C14.0469 4.99133 15.788 5.7136 17.0973 7.02434C18.4065 8.33508 19.1271 10.0773 19.1264 11.9302C19.1248 15.7539 16.0141 18.8647 12.192 18.8647Z" fill="#022C53"/>
<path fill-rule="evenodd" clip-rule="evenodd" d="M15.9957 13.6712C15.7872 13.5668 14.7623 13.0626 14.5712 12.993C14.3801 12.9234 14.2411 12.8886 14.1022 13.0973C13.9632 13.3059 13.5637 13.7755 13.4421 13.9147C13.3205 14.0538 13.1988 14.0713 12.9904 13.9668C12.782 13.8625 12.1103 13.6424 11.314 12.9322C10.6943 12.3794 10.2759 11.6967 10.1543 11.488C10.0327 11.2793 10.1413 11.1665 10.2457 11.0626C10.3395 10.9691 10.4542 10.8191 10.5584 10.6973C10.6626 10.5757 10.6974 10.4886 10.7669 10.3496C10.8364 10.2104 10.8017 10.0887 10.7495 9.98438C10.6974 9.88003 10.2805 8.85394 10.1068 8.43647C9.93752 8.03004 9.76569 8.0851 9.6377 8.07863C9.51629 8.07257 9.37713 8.07132 9.23818 8.07132C9.09922 8.07132 8.87333 8.12351 8.68229 8.33216C8.49122 8.54088 7.95264 9.04526 7.95264 10.0712C7.95264 11.0974 8.69963 12.0886 8.80387 12.2277C8.90808 12.3669 10.2739 14.4725 12.365 15.3755C12.8624 15.5903 13.2507 15.7185 13.5535 15.8146C14.0529 15.9733 14.5073 15.9509 14.8665 15.8972C15.267 15.8373 16.0999 15.3929 16.2736 14.906C16.4473 14.419 16.4473 14.0016 16.3952 13.9147C16.3431 13.8277 16.2041 13.7755 15.9957 13.6712Z" fill="#022C53"/>
</svg>
